<svg xmlns="http://www.w3.org/2000/svg" width="280" height="120" viewBox="0 0 280 120"><defs><style>.a{fill:#92bc94;}.b{fill:#fff;}.c{fill:#fff6d1;}.d{fill:#d9e8ff;}.e{fill:#fde2bd;}.f{fill:#8e8e8e;}.g{fill:#c4c4c4;}</style></defs><title>legend</title><rect class="a" x="12" y="17.94" width="35" height="7.93"/><path class="b" d="M58.67,26.1l0.24,0.28,0.23,0.28a3.89,3.89,0,0,1-1,.57,3.45,3.45,0,0,1-1.21.21,3.39,3.39,0,0,1-1.38-.28,3.67,3.67,0,0,1-1.12-.75,3.5,3.5,0,0,1-.76-1.11,3.52,3.52,0,0,1,0-2.75,3.49,3.49,0,0,1,.76-1.12,3.71,3.71,0,0,1,1.12-.75,3.41,3.41,0,0,1,1.38-.28,3.58,3.58,0,0,1,1.22.21,3.53,3.53,0,0,1,1,.57l-0.24.28-0.24.28a2.83,2.83,0,0,0-.8-0.45,2.92,2.92,0,0,0-2.06.05,2.68,2.68,0,0,0-.87.59,2.82,2.82,0,0,0-.58.89,2.77,2.77,0,0,0-.22,1.09A2.7,2.7,0,0,0,54.35,25a2.86,2.86,0,0,0,.58.88,2.68,2.68,0,0,0,.87.59A2.91,2.91,0,0,0,58.67,26.1Z"/><path class="b" d="M60.85,18.16A0.56,0.56,0,0,1,61,17.74a0.59,0.59,0,0,1,.83,0,0.59,0.59,0,0,1,0,.85,0.59,0.59,0,0,1-.83,0A0.56,0.56,0,0,1,60.85,18.16Zm1,9.14H61.06V20.56H61.8v6.75Z"/><path class="b" d="M65.31,16.17h0.76v4.41h2.07v0.74H66.07v6H65.31v-6H63.74V20.57h1.57V16.17Z"/><path class="b" d="M70.89,31.81H70.1l1.12-2.22,1.12-2.24q-0.86-1.69-1.7-3.38t-1.7-3.4h0.79q0.76,1.51,1.55,3t1.46,3q0.68-1.53,1.47-3t1.54-3h0.79l-2.81,5.63Z"/><path class="b" d="M84.73,16.17h0.76v4.41h2.07v0.74H85.49v6H84.73v-6H83.17V20.57h1.57V16.17Z"/><path class="b" d="M93,21.15a3.28,3.28,0,0,0-1.07.21,2.68,2.68,0,0,0-.85.51,2.45,2.45,0,0,0-.58.77,2.21,2.21,0,0,0-.22,1v3.69H89.52V20.56H90.2v1.19c0,0.17,0,.35,0,0.56a3,3,0,0,1,1.2-1.38A3.2,3.2,0,0,1,93,20.41Z"/><path class="b" d="M93.66,23.92a3.35,3.35,0,0,1,.28-1.36,3.54,3.54,0,0,1,1.88-1.87,3.47,3.47,0,0,1,1.39-.28,3.18,3.18,0,0,1,1,.15A3.68,3.68,0,0,1,99,21a2.78,2.78,0,0,1,.64.56,2.45,2.45,0,0,1,.39.62c0-.26,0-0.53,0-0.79s0-.53,0-0.79h0.61v6.75h-0.68V26.5c0-.13,0-0.26,0-0.38s0-.25,0-0.38a1.94,1.94,0,0,1-.37.61,3,3,0,0,1-.63.55,3.23,3.23,0,0,1-.85.39,3.58,3.58,0,0,1-1,.14,3.46,3.46,0,0,1-1.39-.28,3.63,3.63,0,0,1-1.12-.75,3.47,3.47,0,0,1-.76-1.11A3.39,3.39,0,0,1,93.66,23.92Zm0.76,0A2.72,2.72,0,0,0,94.63,25a2.88,2.88,0,0,0,.59.88,2.63,2.63,0,0,0,.88.59,2.81,2.81,0,0,0,1.11.22,2.75,2.75,0,0,0,1.1-.22A2.77,2.77,0,0,0,99.78,25a2.7,2.7,0,0,0,.22-1.08,2.76,2.76,0,0,0-2.79-2.79,2.83,2.83,0,0,0-1.11.22,2.63,2.63,0,0,0-.88.59,2.84,2.84,0,0,0-.59.89A2.78,2.78,0,0,0,94.42,23.92Z"/><path class="b" d="M103,18.16a0.56,0.56,0,0,1,.18-0.42,0.59,0.59,0,0,1,.83,0,0.59,0.59,0,0,1,0,.85,0.59,0.59,0,0,1-.83,0A0.56,0.56,0,0,1,103,18.16Zm1,9.14h-0.74V20.56h0.74v6.75Z"/><path class="b" d="M107.05,20.56h0.68v1.19c0,0.17,0,.35,0,0.56a3,3,0,0,1,1.15-1.37,3.2,3.2,0,0,1,1.8-.52,2.16,2.16,0,0,1,1.57.56,2.06,2.06,0,0,1,.61,1.46v4.88h-0.76V22.63a1.62,1.62,0,0,0-.42-1,1.57,1.57,0,0,0-1.14-.47,3,3,0,0,0-1,.19,2.91,2.91,0,0,0-.88.51,2.45,2.45,0,0,0-.6.77,2.18,2.18,0,0,0-.22,1v3.69h-0.76V20.56Z"/><rect class="c" x="12" y="43.54" width="35" height="7.93"/><path class="b" d="M53.85,39.41h0.76v7.69l-0.05.81a2.88,2.88,0,0,1,1.14-1.36A3.55,3.55,0,0,1,57.51,46a2.16,2.16,0,0,1,1.57.56A2.06,2.06,0,0,1,59.69,48v4.88H58.93V48.23a1.62,1.62,0,0,0-.42-1,1.57,1.57,0,0,0-1.14-.47,3,3,0,0,0-1,.19,2.91,2.91,0,0,0-.88.51,2.45,2.45,0,0,0-.6.77,2.18,2.18,0,0,0-.22,1v3.69H53.85V39.41Z"/><path class="b" d="M62.13,43.76a0.56,0.56,0,0,1,.18-0.42,0.59,0.59,0,0,1,.83,0,0.59,0.59,0,0,1,0,.85,0.59,0.59,0,0,1-.83,0A0.56,0.56,0,0,1,62.13,43.76Zm1,9.14H62.35V46.16h0.74v6.75Z"/><path class="b" d="M71.73,46.16h0.61v7.38a4.46,4.46,0,0,1-.27,1.59,3.68,3.68,0,0,1-.74,1.22,3.23,3.23,0,0,1-1.09.77,3.56,3.56,0,0,1-1.34.29,4.91,4.91,0,0,1-1.52-.29,3.07,3.07,0,0,1-1.25-.79L66.4,56l0.27-.28a2.44,2.44,0,0,0,1,.65,3.6,3.6,0,0,0,1.21.22,2.5,2.5,0,0,0,1.91-.86,3.18,3.18,0,0,0,.58-1,3.68,3.68,0,0,0,.22-1.29v-1.3l0-.41c0-.14,0-0.28,0-0.41a2.62,2.62,0,0,1-1,1.15,3.34,3.34,0,0,1-1.83.52,3.46,3.46,0,0,1-1.39-.28A3.63,3.63,0,0,1,66.28,52a3.47,3.47,0,0,1-.76-1.11,3.39,3.39,0,0,1-.28-1.38,3.35,3.35,0,0,1,.28-1.36,3.54,3.54,0,0,1,1.88-1.87A3.47,3.47,0,0,1,68.79,46a3.18,3.18,0,0,1,1,.15,3.68,3.68,0,0,1,.85.4,2.78,2.78,0,0,1,.64.56,2.45,2.45,0,0,1,.39.62c0-.26,0-0.53,0-0.79S71.72,46.42,71.73,46.16ZM66,49.52a2.72,2.72,0,0,0,.22,1.08,2.88,2.88,0,0,0,.59.88,2.63,2.63,0,0,0,.88.59,2.81,2.81,0,0,0,1.11.22,2.75,2.75,0,0,0,1.1-.22,2.77,2.77,0,0,0,1.48-1.48,2.7,2.7,0,0,0,.22-1.08,2.76,2.76,0,0,0-2.79-2.79,2.83,2.83,0,0,0-1.11.22,2.63,2.63,0,0,0-.88.59,2.84,2.84,0,0,0-.59.89A2.78,2.78,0,0,0,66,49.52Z"/><path class="b" d="M75.54,39.41H76.3v7.69l-0.05.81a2.88,2.88,0,0,1,1.14-1.36A3.55,3.55,0,0,1,79.2,46a2.16,2.16,0,0,1,1.57.56A2.06,2.06,0,0,1,81.38,48v4.88H80.62V48.23a1.62,1.62,0,0,0-.42-1,1.57,1.57,0,0,0-1.14-.47,3,3,0,0,0-1,.19,2.91,2.91,0,0,0-.88.51,2.45,2.45,0,0,0-.6.77,2.18,2.18,0,0,0-.22,1v3.69H75.54V39.41Z"/><path class="b" d="M88.67,47.67q-0.2-.38-0.37-0.76t-0.37-.76h0.76q0.7,1.44,1.44,2.89T91.51,52Q92.16,50.5,92.9,49t1.44-2.89h0.76L93.3,49.74l-1.79,3.58q-0.61-1.24-1.22-2.45t-1.22-2.45q-0.61,1.24-1.22,2.45t-1.22,2.45l-1.79-3.58L83,46.16h0.76q0.7,1.44,1.44,2.89T86.61,52q0.47-1.08,1-2.14T88.67,47.67Z"/><path class="b" d="M96.35,49.52a3.35,3.35,0,0,1,.28-1.36,3.54,3.54,0,0,1,1.88-1.87A3.47,3.47,0,0,1,99.9,46a3.18,3.18,0,0,1,1,.15,3.68,3.68,0,0,1,.85.4,2.78,2.78,0,0,1,.64.56,2.45,2.45,0,0,1,.39.62c0-.26,0-0.53,0-0.79s0-.53,0-0.79h0.61v6.75h-0.68V52.1c0-.13,0-0.26,0-0.38s0-.25,0-0.38a1.94,1.94,0,0,1-.37.61,3,3,0,0,1-.63.55,3.23,3.23,0,0,1-.85.39,3.58,3.58,0,0,1-1,.14,3.46,3.46,0,0,1-1.39-.28A3.63,3.63,0,0,1,97.39,52a3.47,3.47,0,0,1-.76-1.11A3.39,3.39,0,0,1,96.35,49.52Zm0.76,0a2.72,2.72,0,0,0,.22,1.08,2.88,2.88,0,0,0,.59.88,2.63,2.63,0,0,0,.88.59,2.81,2.81,0,0,0,1.11.22,2.75,2.75,0,0,0,1.1-.22,2.77,2.77,0,0,0,1.48-1.48,2.7,2.7,0,0,0,.22-1.08,2.76,2.76,0,0,0-2.79-2.79,2.83,2.83,0,0,0-1.11.22,2.63,2.63,0,0,0-.88.59,2.84,2.84,0,0,0-.59.89A2.78,2.78,0,0,0,97.11,49.52Z"/><path class="b" d="M107.17,57.41h-0.79l1.12-2.22,1.12-2.24q-0.86-1.69-1.7-3.38t-1.7-3.4H106q0.76,1.51,1.55,3t1.46,3q0.68-1.53,1.47-3t1.54-3h0.79L110,51.78Z"/><rect class="d" x="140" y="17.94" width="35" height="7.93"/><path class="b" d="M185.33,21.15a3.28,3.28,0,0,0-1.07.21,2.68,2.68,0,0,0-.85.51,2.45,2.45,0,0,0-.58.77,2.21,2.21,0,0,0-.22,1v3.69h-0.76V20.56h0.68v1.19c0,0.17,0,.35,0,0.56a3,3,0,0,1,1.2-1.38,3.2,3.2,0,0,1,1.63-.51Z"/><path class="b" d="M187.09,18.16a0.56,0.56,0,0,1,.18-0.42,0.59,0.59,0,0,1,.83,0,0.59,0.59,0,0,1,0,.85,0.59,0.59,0,0,1-.83,0A0.56,0.56,0,0,1,187.09,18.16Zm1,9.14h-0.74V20.56H188v6.75Z"/><path class="b" d="M194,27.72q-0.92-1.8-1.84-3.58t-1.85-3.58h0.76q0.74,1.42,1.51,2.88T194,26.35q0.65-1.46,1.42-2.91t1.51-2.89h0.76Q195.86,24.1,194,27.72Z"/><path class="b" d="M205.6,22.93L202.81,24,200,25.15a2.55,2.55,0,0,0,1,1.12,2.86,2.86,0,0,0,2.56.23,2.55,2.55,0,0,0,.85-0.56l0.23,0.28,0.23,0.28a3.68,3.68,0,0,1-1.06.68,3.28,3.28,0,0,1-1.3.25,3.39,3.39,0,0,1-1.38-.28,3.67,3.67,0,0,1-1.12-.75,3.5,3.5,0,0,1-.76-1.11,3.52,3.52,0,0,1,0-2.75,3.49,3.49,0,0,1,.76-1.12,3.71,3.71,0,0,1,1.12-.75,3.41,3.41,0,0,1,1.38-.28,2.81,2.81,0,0,1,1,.19,3.22,3.22,0,0,1,.89.52,3.58,3.58,0,0,1,.71.79A3.66,3.66,0,0,1,205.6,22.93Zm-3.1-1.8a2.8,2.8,0,0,0-1,.19,2.57,2.57,0,0,0-.85.53,2.84,2.84,0,0,0-.58.79,2.77,2.77,0,0,0-.28,1,3.26,3.26,0,0,0,0,.42,3,3,0,0,0,0,.4l2.41-1,2.43-1a2.57,2.57,0,0,0-.88-1A2.21,2.21,0,0,0,202.5,21.13Z"/><path class="b" d="M211.77,21.15a3.28,3.28,0,0,0-1.07.21,2.68,2.68,0,0,0-.85.51,2.45,2.45,0,0,0-.58.77,2.21,2.21,0,0,0-.22,1v3.69h-0.76V20.56H209v1.19c0,0.17,0,.35,0,0.56a3,3,0,0,1,1.2-1.38,3.2,3.2,0,0,1,1.63-.51Z"/><rect class="e" x="140" y="43.37" width="35" height="7.93"/><path class="b" d="M181.85,46h0.68v1.19c0,0.17,0,.35,0,0.56a2.93,2.93,0,0,1,1.14-1.37,3.38,3.38,0,0,1,1.81-.52,2.21,2.21,0,0,1,1.49.49,1.94,1.94,0,0,1,.67,1.31,3,3,0,0,1,1.15-1.3,3.36,3.36,0,0,1,1.76-.5,2.16,2.16,0,0,1,1.57.56,2.06,2.06,0,0,1,.61,1.46v4.88H192V48.05a1.62,1.62,0,0,0-.42-1,1.57,1.57,0,0,0-1.14-.47,3.08,3.08,0,0,0-1,.18,2.76,2.76,0,0,0-.88.5,2.49,2.49,0,0,0-.6.76,2.28,2.28,0,0,0-.24,1v3.74h-0.76V48.05a1.62,1.62,0,0,0-.42-1,1.57,1.57,0,0,0-1.14-.47,3,3,0,0,0-1,.19,2.91,2.91,0,0,0-.88.51,2.45,2.45,0,0,0-.6.77,2.18,2.18,0,0,0-.22,1v3.69h-0.76V46Z"/><path class="b" d="M195,49.35a3.43,3.43,0,0,1,.28-1.37,3.54,3.54,0,0,1,1.87-1.88,3.39,3.39,0,0,1,1.38-.28,3.46,3.46,0,0,1,1.39.28,3.68,3.68,0,0,1,1.13.76,3.52,3.52,0,0,1,.76,1.13,3.45,3.45,0,0,1-.76,3.85,3.75,3.75,0,0,1-1.13.75,3.46,3.46,0,0,1-1.39.28,3.39,3.39,0,0,1-1.38-.28,3.67,3.67,0,0,1-1.12-.75,3.5,3.5,0,0,1-.76-1.11A3.41,3.41,0,0,1,195,49.35Zm0.76,0a2.7,2.7,0,0,0,.22,1.08,2.77,2.77,0,0,0,1.48,1.48,2.81,2.81,0,0,0,2.16,0,2.78,2.78,0,0,0,.88-0.59,2.92,2.92,0,0,0,.6-0.88,2.71,2.71,0,0,0,0-2.16,2.9,2.9,0,0,0-1.49-1.49,2.71,2.71,0,0,0-2.16,0,2.92,2.92,0,0,0-.88.6,2.78,2.78,0,0,0-.59.88A2.7,2.7,0,0,0,195.73,49.35Z"/><path class="b" d="M205,41.59h0.76V46h2.07v0.74h-2.07v6H205v-6h-1.57V46H205V41.59Z"/><path class="b" d="M208.62,49.35A3.43,3.43,0,0,1,208.9,48a3.54,3.54,0,0,1,1.87-1.88,3.39,3.39,0,0,1,1.38-.28,3.46,3.46,0,0,1,1.39.28,3.68,3.68,0,0,1,1.13.76,3.52,3.52,0,0,1,.76,1.13,3.45,3.45,0,0,1-.76,3.85,3.75,3.75,0,0,1-1.13.75,3.46,3.46,0,0,1-1.39.28,3.39,3.39,0,0,1-1.38-.28,3.67,3.67,0,0,1-1.12-.75,3.5,3.5,0,0,1-.76-1.11A3.41,3.41,0,0,1,208.62,49.35Zm0.76,0a2.7,2.7,0,0,0,.22,1.08,2.77,2.77,0,0,0,1.48,1.48,2.81,2.81,0,0,0,2.16,0,2.78,2.78,0,0,0,.88-0.59,2.92,2.92,0,0,0,.6-0.88,2.71,2.71,0,0,0,0-2.16,2.9,2.9,0,0,0-1.49-1.49,2.71,2.71,0,0,0-2.16,0,2.92,2.92,0,0,0-.88.6,2.78,2.78,0,0,0-.59.88A2.7,2.7,0,0,0,209.38,49.35Z"/><path class="b" d="M221.78,46.58a3.28,3.28,0,0,0-1.07.21,2.68,2.68,0,0,0-.85.51,2.45,2.45,0,0,0-.58.77,2.21,2.21,0,0,0-.22,1v3.69H218.3V46H219v1.19c0,0.17,0,.35,0,0.56a3,3,0,0,1,1.2-1.38,3.2,3.2,0,0,1,1.63-.51Z"/><path class="b" d="M228.83,47.49q-0.2-.38-0.37-0.76T228.1,46h0.76q0.7,1.44,1.44,2.89t1.39,2.91q0.65-1.46,1.39-2.91T234.5,46h0.76l-1.79,3.58-1.79,3.58q-0.61-1.24-1.22-2.45t-1.22-2.45q-0.61,1.24-1.22,2.45t-1.22,2.45L225,49.56,223.2,46H224q0.7,1.44,1.44,2.89t1.39,2.91q0.47-1.08,1-2.14T228.83,47.49Z"/><path class="b" d="M236.52,49.35A3.35,3.35,0,0,1,236.8,48a3.54,3.54,0,0,1,1.88-1.87,3.47,3.47,0,0,1,1.39-.28,3.18,3.18,0,0,1,1,.15,3.68,3.68,0,0,1,.85.4,2.78,2.78,0,0,1,.64.56,2.45,2.45,0,0,1,.39.62c0-.26,0-0.53,0-0.79s0-.53,0-0.79h0.61v6.75h-0.68V51.92c0-.13,0-0.26,0-0.38s0-.25,0-0.38a1.94,1.94,0,0,1-.37.61,3,3,0,0,1-.63.55,3.23,3.23,0,0,1-.85.39,3.58,3.58,0,0,1-1,.14,3.46,3.46,0,0,1-1.39-.28,3.63,3.63,0,0,1-1.12-.75,3.47,3.47,0,0,1-.76-1.11A3.39,3.39,0,0,1,236.52,49.35Zm0.76,0a2.72,2.72,0,0,0,.22,1.08,2.88,2.88,0,0,0,.59.88,2.63,2.63,0,0,0,.88.59,2.81,2.81,0,0,0,1.11.22,2.75,2.75,0,0,0,1.1-.22,2.77,2.77,0,0,0,1.48-1.48,2.7,2.7,0,0,0,.22-1.08,2.76,2.76,0,0,0-2.79-2.79,2.83,2.83,0,0,0-1.11.22,2.63,2.63,0,0,0-.88.59,2.84,2.84,0,0,0-.59.89A2.78,2.78,0,0,0,237.28,49.35Z"/><path class="b" d="M247.34,57.23h-0.79L247.66,55l1.12-2.24q-0.86-1.69-1.7-3.38t-1.7-3.4h0.79q0.76,1.51,1.55,3t1.46,3q0.68-1.53,1.47-3t1.54-3H253l-2.81,5.63Z"/><rect class="f" x="12" y="69.15" width="34.73" height="7.93"/><path class="b" d="M57.67,77.3l0.24,0.28,0.23,0.28a3.89,3.89,0,0,1-1,.57,3.45,3.45,0,0,1-1.21.21,3.39,3.39,0,0,1-1.38-.28,3.67,3.67,0,0,1-1.12-.75,3.5,3.5,0,0,1-.76-1.11,3.52,3.52,0,0,1,0-2.75,3.49,3.49,0,0,1,.76-1.12,3.71,3.71,0,0,1,1.12-.75,3.41,3.41,0,0,1,1.38-.28,3.58,3.58,0,0,1,1.22.21,3.53,3.53,0,0,1,1,.57l-0.24.28-0.24.28a2.83,2.83,0,0,0-.8-0.45,2.92,2.92,0,0,0-2.06.05,2.68,2.68,0,0,0-.87.59,2.82,2.82,0,0,0-.58.89,2.77,2.77,0,0,0-.22,1.09,2.7,2.7,0,0,0,.22,1.08,2.86,2.86,0,0,0,.58.88,2.68,2.68,0,0,0,.87.59A2.91,2.91,0,0,0,57.67,77.3Z"/><path class="b" d="M59.84,69.37A0.56,0.56,0,0,1,60,68.94a0.59,0.59,0,0,1,.83,0,0.59,0.59,0,0,1,0,.85,0.59,0.59,0,0,1-.83,0A0.56,0.56,0,0,1,59.84,69.37Zm1,9.14H60.06V71.76H60.8v6.75Z"/><path class="b" d="M64.31,67.37h0.76v4.41h2.07v0.74H65.06v6H64.31v-6H62.74V71.78h1.57V67.37Z"/><path class="b" d="M69.89,83H69.1l1.12-2.22,1.12-2.24q-0.86-1.69-1.7-3.38t-1.7-3.4h0.79q0.76,1.51,1.55,3t1.46,3q0.68-1.53,1.47-3t1.54-3h0.79l-2.81,5.63Z"/><path class="b" d="M90.07,75.13a3.41,3.41,0,0,1-.28,1.38A3.5,3.5,0,0,1,89,77.61a3.64,3.64,0,0,1-1.12.75,3.46,3.46,0,0,1-1.39.28,3.57,3.57,0,0,1-1-.14,3.24,3.24,0,0,1-.85-0.39A3,3,0,0,1,84,77.55a2,2,0,0,1-.37-0.61c0,0.13,0,.26,0,0.38s0,0.25,0,.38v0.81H83V65h0.76v7.51a3.08,3.08,0,0,0,0,.41c0,0.14,0,.27,0,0.41A1.9,1.9,0,0,1,84,72.71a3.06,3.06,0,0,1,.65-0.55,3.69,3.69,0,0,1,.85-0.4,3.17,3.17,0,0,1,1-.15,3.48,3.48,0,0,1,1.39.28,3.54,3.54,0,0,1,1.88,1.87A3.37,3.37,0,0,1,90.07,75.13Zm-0.76,0A2.77,2.77,0,0,0,89.09,74a2.82,2.82,0,0,0-.58-0.89,2.65,2.65,0,0,0-.88-0.59,2.95,2.95,0,0,0-2.21,0,2.65,2.65,0,0,0-.88.59,2.82,2.82,0,0,0-.58.89,2.77,2.77,0,0,0-.22,1.09,2.7,2.7,0,0,0,.22,1.08,2.86,2.86,0,0,0,.58.88,2.65,2.65,0,0,0,.88.59,2.95,2.95,0,0,0,2.21,0,2.65,2.65,0,0,0,.88-0.59,2.86,2.86,0,0,0,.58-0.88A2.7,2.7,0,0,0,89.31,75.13Z"/><path class="b" d="M91.67,75.13a3.43,3.43,0,0,1,.28-1.37,3.54,3.54,0,0,1,1.87-1.88,3.39,3.39,0,0,1,1.38-.28,3.46,3.46,0,0,1,1.39.28,3.68,3.68,0,0,1,1.13.76,3.52,3.52,0,0,1,.76,1.13,3.45,3.45,0,0,1-.76,3.85,3.75,3.75,0,0,1-1.13.75,3.46,3.46,0,0,1-1.39.28,3.39,3.39,0,0,1-1.38-.28,3.67,3.67,0,0,1-1.12-.75,3.5,3.5,0,0,1-.76-1.11A3.41,3.41,0,0,1,91.67,75.13Zm0.76,0a2.7,2.7,0,0,0,.22,1.08,2.77,2.77,0,0,0,1.48,1.48,2.81,2.81,0,0,0,2.16,0,2.78,2.78,0,0,0,.88-0.59,2.92,2.92,0,0,0,.6-0.88,2.71,2.71,0,0,0,0-2.16,2.9,2.9,0,0,0-1.49-1.49,2.71,2.71,0,0,0-2.16,0,2.92,2.92,0,0,0-.88.6,2.78,2.78,0,0,0-.59.88A2.7,2.7,0,0,0,92.42,75.13Z"/><path class="b" d="M104.82,72.35a3.28,3.28,0,0,0-1.07.21,2.68,2.68,0,0,0-.85.51,2.45,2.45,0,0,0-.58.77,2.21,2.21,0,0,0-.22,1v3.69h-0.76V71.76H102v1.19c0,0.17,0,.35,0,0.56a3,3,0,0,1,1.2-1.38,3.2,3.2,0,0,1,1.63-.51Z"/><path class="b" d="M106.41,75.13a3.46,3.46,0,0,1,.27-1.36,3.5,3.5,0,0,1,.75-1.12,3.6,3.6,0,0,1,1.13-.76,3.48,3.48,0,0,1,1.39-.28,3.24,3.24,0,0,1,1,.15,3.68,3.68,0,0,1,.85.4,3.09,3.09,0,0,1,.65.55,1.9,1.9,0,0,1,.38.61c0-.13,0-0.27,0-0.41l0-.41V65h0.74v13.5h-0.67V76.94a2,2,0,0,1-.37.61,3,3,0,0,1-.63.55,3.24,3.24,0,0,1-.85.39,3.57,3.57,0,0,1-1,.14,3.46,3.46,0,0,1-1.39-.28,3.64,3.64,0,0,1-1.12-.75,3.38,3.38,0,0,1-.75-1.11A3.5,3.5,0,0,1,106.41,75.13Zm0.76,0a2.72,2.72,0,0,0,.22,1.08,2.87,2.87,0,0,0,.58.88,2.68,2.68,0,0,0,.87.59,2.75,2.75,0,0,0,1.1.22,2.81,2.81,0,0,0,1.11-.22,2.75,2.75,0,0,0,1.49-1.48,2.72,2.72,0,0,0,.22-1.08,2.75,2.75,0,0,0-1.7-2.57,2.83,2.83,0,0,0-1.11-.22,2.77,2.77,0,0,0-1.1.22,2.68,2.68,0,0,0-.87.59,2.84,2.84,0,0,0-.58.89A2.78,2.78,0,0,0,107.16,75.13Z"/><path class="b" d="M122.16,74.13l-2.79,1.11-2.79,1.11a2.55,2.55,0,0,0,1,1.12,2.86,2.86,0,0,0,2.56.23,2.55,2.55,0,0,0,.85-0.56l0.23,0.28,0.23,0.28a3.68,3.68,0,0,1-1.06.68,3.28,3.28,0,0,1-1.3.25,3.39,3.39,0,0,1-1.38-.28,3.67,3.67,0,0,1-1.12-.75,3.5,3.5,0,0,1-.76-1.11,3.52,3.52,0,0,1,0-2.75,3.49,3.49,0,0,1,.76-1.12,3.71,3.71,0,0,1,1.12-.75,3.41,3.41,0,0,1,1.38-.28,2.81,2.81,0,0,1,1,.19,3.22,3.22,0,0,1,.89.52,3.58,3.58,0,0,1,.71.79A3.66,3.66,0,0,1,122.16,74.13Zm-3.1-1.8a2.8,2.8,0,0,0-1,.19,2.57,2.57,0,0,0-.85.53,2.84,2.84,0,0,0-.58.79,2.77,2.77,0,0,0-.28,1,3.26,3.26,0,0,0,0,.42,3,3,0,0,0,0,.4l2.41-1,2.43-1a2.57,2.57,0,0,0-.88-1A2.21,2.21,0,0,0,119.06,72.33Z"/><path class="b" d="M128.33,72.35a3.28,3.28,0,0,0-1.07.21,2.68,2.68,0,0,0-.85.51,2.45,2.45,0,0,0-.58.77,2.21,2.21,0,0,0-.22,1v3.69h-0.76V71.76h0.68v1.19c0,0.17,0,.35,0,0.56a3,3,0,0,1,1.2-1.38,3.2,3.2,0,0,1,1.63-.51Z"/><rect class="g" x="12.25" y="94.75" width="2.25" height="7.93"/><path class="g" d="M40.64,102.67H36.29V94.75h4.36v7.93Zm-8.71,0H27.57V94.75h4.36v7.93Zm-8.71,0H18.86V94.75h4.36v7.93Z"/><rect class="g" x="45" y="94.75" width="2.25" height="7.93"/><path class="b" d="M55.72,100.73A3.46,3.46,0,0,1,56,99.37a3.5,3.5,0,0,1,.75-1.12,3.6,3.6,0,0,1,1.13-.76,3.48,3.48,0,0,1,1.39-.28,3.24,3.24,0,0,1,1,.15,3.68,3.68,0,0,1,.85.4,3.09,3.09,0,0,1,.65.55,1.9,1.9,0,0,1,.38.61c0-.13,0-0.27,0-0.41l0-.41V90.61h0.74v13.5H62.13v-1.57a2,2,0,0,1-.37.61,3,3,0,0,1-.63.55,3.24,3.24,0,0,1-.85.39,3.57,3.57,0,0,1-1,.14,3.46,3.46,0,0,1-1.39-.28,3.64,3.64,0,0,1-1.12-.75A3.38,3.38,0,0,1,56,102.1,3.5,3.5,0,0,1,55.72,100.73Zm0.76,0a2.72,2.72,0,0,0,.22,1.08,2.87,2.87,0,0,0,.58.88,2.68,2.68,0,0,0,.87.59,2.75,2.75,0,0,0,1.1.22,2.81,2.81,0,0,0,1.11-.22,2.75,2.75,0,0,0,1.49-1.48,2.72,2.72,0,0,0,.22-1.08,2.75,2.75,0,0,0-1.7-2.57,2.83,2.83,0,0,0-1.11-.22,2.77,2.77,0,0,0-1.1.22,2.68,2.68,0,0,0-.87.59,2.84,2.84,0,0,0-.58.89A2.78,2.78,0,0,0,56.47,100.73Z"/><path class="b" d="M65.33,95a0.56,0.56,0,0,1,.18-0.42,0.59,0.59,0,0,1,.83,0,0.59,0.59,0,0,1,0,.85,0.59,0.59,0,0,1-.83,0A0.56,0.56,0,0,1,65.33,95Zm1,9.14H65.54V97.36h0.74v6.75Z"/><path class="b" d="M72.62,98a3.07,3.07,0,0,1-.22.27,1.82,1.82,0,0,0-.21.27,1.58,1.58,0,0,0-.61-0.41A2.07,2.07,0,0,0,70.78,98a1.53,1.53,0,0,0-.43.06,1.24,1.24,0,0,0-.4.2,0.91,0.91,0,0,0-.28.34,1.18,1.18,0,0,0-.1.51,0.85,0.85,0,0,0,.27.62,2.18,2.18,0,0,0,.61.38c0.24,0.1.5,0.2,0.79,0.29a3.68,3.68,0,0,1,.79.35,2,2,0,0,1,.6.56,1.55,1.55,0,0,1,.24.92,2.07,2.07,0,0,1-.12.66,2,2,0,0,1-.37.66,2,2,0,0,1-.67.51,2.27,2.27,0,0,1-1,.21,3.72,3.72,0,0,1-1.16-.2,2,2,0,0,1-1-.65l0.23-.27,0.25-.27a1.93,1.93,0,0,0,.76.48,2.71,2.71,0,0,0,.94.17,1.57,1.57,0,0,0,.4-0.06,1.44,1.44,0,0,0,.82-0.6,1,1,0,0,0,.15-0.58,1,1,0,0,0-.23-0.72,1.7,1.7,0,0,0-.6-0.41,6.88,6.88,0,0,0-.8-0.27,3.76,3.76,0,0,1-.8-0.31,1.93,1.93,0,0,1-.62-0.52,1.46,1.46,0,0,1-.25-0.92,1.75,1.75,0,0,1,.65-1.4,2,2,0,0,1,.63-0.35,2,2,0,0,1,.67-0.12,3.22,3.22,0,0,1,.93.17A2,2,0,0,1,72.62,98Z"/><path class="b" d="M76.13,93h0.76v4.41H79v0.74H76.88v6H76.13v-6H74.56V97.38h1.57V93Z"/><path class="b" d="M84.39,98a3.28,3.28,0,0,0-1.07.21,2.68,2.68,0,0,0-.85.51,2.45,2.45,0,0,0-.58.77,2.21,2.21,0,0,0-.22,1v3.69H80.92V97.36H81.6v1.19c0,0.17,0,.35,0,0.56a3,3,0,0,1,1.2-1.38,3.2,3.2,0,0,1,1.63-.51Z"/><path class="b" d="M86.15,95a0.56,0.56,0,0,1,.18-0.42,0.59,0.59,0,0,1,.83,0,0.59,0.59,0,0,1,0,.85,0.59,0.59,0,0,1-.83,0A0.56,0.56,0,0,1,86.15,95Zm1,9.14H86.37V97.36h0.74v6.75Z"/><path class="b" d="M94.33,102.9l0.24,0.28,0.23,0.28a3.89,3.89,0,0,1-1,.57,3.45,3.45,0,0,1-1.21.21,3.39,3.39,0,0,1-1.38-.28,3.67,3.67,0,0,1-1.12-.75,3.5,3.5,0,0,1-.76-1.11,3.52,3.52,0,0,1,0-2.75,3.49,3.49,0,0,1,.76-1.12,3.71,3.71,0,0,1,1.12-.75,3.41,3.41,0,0,1,1.38-.28,3.58,3.58,0,0,1,1.22.21,3.53,3.53,0,0,1,1,.57l-0.24.28-0.24.28a2.83,2.83,0,0,0-.8-0.45,2.92,2.92,0,0,0-2.06.05,2.68,2.68,0,0,0-.87.59,2.82,2.82,0,0,0-.58.89,2.77,2.77,0,0,0-.22,1.09,2.7,2.7,0,0,0,.22,1.08,2.86,2.86,0,0,0,.58.88,2.68,2.68,0,0,0,.87.59A2.91,2.91,0,0,0,94.33,102.9Z"/><path class="b" d="M97.6,93h0.76v4.41h2.07v0.74H98.36v6H97.6v-6H96V97.38H97.6V93Z"/><path class="b" d="M114.5,100.73a3.41,3.41,0,0,1-.28,1.38,3.5,3.5,0,0,1-.76,1.11,3.64,3.64,0,0,1-1.12.75,3.46,3.46,0,0,1-1.39.28,3.57,3.57,0,0,1-1-.14,3.24,3.24,0,0,1-.85-0.39,3,3,0,0,1-.63-0.55,2,2,0,0,1-.37-0.61c0,0.13,0,.26,0,0.38s0,0.25,0,.38v0.81h-0.68V90.61h0.76v7.51a3.08,3.08,0,0,0,0,.41c0,0.14,0,.27,0,0.41a1.9,1.9,0,0,1,.38-0.61,3.06,3.06,0,0,1,.65-0.55,3.69,3.69,0,0,1,.85-0.4,3.17,3.17,0,0,1,1-.15,3.48,3.48,0,0,1,1.39.28,3.54,3.54,0,0,1,1.88,1.87A3.37,3.37,0,0,1,114.5,100.73Zm-0.76,0a2.77,2.77,0,0,0-.22-1.09,2.82,2.82,0,0,0-.58-0.89,2.65,2.65,0,0,0-.88-0.59,2.95,2.95,0,0,0-2.21,0,2.65,2.65,0,0,0-.88.59,2.82,2.82,0,0,0-.58.89,2.77,2.77,0,0,0-.22,1.09,2.7,2.7,0,0,0,.22,1.08,2.86,2.86,0,0,0,.58.88,2.65,2.65,0,0,0,.88.59,2.95,2.95,0,0,0,2.21,0,2.65,2.65,0,0,0,.88-0.59,2.86,2.86,0,0,0,.58-0.88A2.7,2.7,0,0,0,113.75,100.73Z"/><path class="b" d="M116.11,100.73a3.43,3.43,0,0,1,.28-1.37,3.54,3.54,0,0,1,1.87-1.88,3.39,3.39,0,0,1,1.38-.28,3.46,3.46,0,0,1,1.39.28,3.68,3.68,0,0,1,1.13.76,3.52,3.52,0,0,1,.76,1.13,3.45,3.45,0,0,1-.76,3.85A3.75,3.75,0,0,1,121,104a3.46,3.46,0,0,1-1.39.28,3.39,3.39,0,0,1-1.38-.28,3.67,3.67,0,0,1-1.12-.75,3.5,3.5,0,0,1-.76-1.11A3.41,3.41,0,0,1,116.11,100.73Zm0.76,0a2.7,2.7,0,0,0,.22,1.08,2.77,2.77,0,0,0,1.48,1.48,2.81,2.81,0,0,0,2.16,0,2.78,2.78,0,0,0,.88-0.59,2.92,2.92,0,0,0,.6-0.88,2.71,2.71,0,0,0,0-2.16,2.9,2.9,0,0,0-1.49-1.49,2.71,2.71,0,0,0-2.16,0,2.92,2.92,0,0,0-.88.6,2.78,2.78,0,0,0-.59.88A2.7,2.7,0,0,0,116.86,100.73Z"/><path class="b" d="M129.26,98a3.28,3.28,0,0,0-1.07.21,2.68,2.68,0,0,0-.85.51,2.45,2.45,0,0,0-.58.77,2.21,2.21,0,0,0-.22,1v3.69h-0.76V97.36h0.68v1.19c0,0.17,0,.35,0,0.56a3,3,0,0,1,1.2-1.38,3.2,3.2,0,0,1,1.63-.51Z"/><path class="b" d="M130.85,100.73a3.46,3.46,0,0,1,.27-1.36,3.5,3.5,0,0,1,.75-1.12A3.6,3.6,0,0,1,133,97.5a3.48,3.48,0,0,1,1.39-.28,3.24,3.24,0,0,1,1,.15,3.68,3.68,0,0,1,.85.4,3.09,3.09,0,0,1,.65.55,1.9,1.9,0,0,1,.38.61c0-.13,0-0.27,0-0.41l0-.41V90.61h0.74v13.5h-0.67v-1.57a2,2,0,0,1-.37.61,3,3,0,0,1-.63.55,3.24,3.24,0,0,1-.85.39,3.57,3.57,0,0,1-1,.14A3.46,3.46,0,0,1,133,104a3.64,3.64,0,0,1-1.12-.75,3.38,3.38,0,0,1-.75-1.11A3.5,3.5,0,0,1,130.85,100.73Zm0.76,0a2.72,2.72,0,0,0,.22,1.08,2.87,2.87,0,0,0,.58.88,2.68,2.68,0,0,0,.87.59,2.75,2.75,0,0,0,1.1.22,2.81,2.81,0,0,0,1.11-.22,2.75,2.75,0,0,0,1.49-1.48,2.72,2.72,0,0,0,.22-1.08,2.75,2.75,0,0,0-1.7-2.57,2.83,2.83,0,0,0-1.11-.22,2.77,2.77,0,0,0-1.1.22,2.68,2.68,0,0,0-.87.59,2.84,2.84,0,0,0-.58.89A2.78,2.78,0,0,0,131.6,100.73Z"/><path class="b" d="M146.6,99.74l-2.79,1.11L141,102a2.55,2.55,0,0,0,1,1.12,2.86,2.86,0,0,0,2.56.23,2.55,2.55,0,0,0,.85-0.56l0.23,0.28,0.23,0.28a3.68,3.68,0,0,1-1.06.68,3.28,3.28,0,0,1-1.3.25,3.39,3.39,0,0,1-1.38-.28,3.67,3.67,0,0,1-1.12-.75,3.5,3.5,0,0,1-.76-1.11,3.52,3.52,0,0,1,0-2.75,3.49,3.49,0,0,1,.76-1.12,3.71,3.71,0,0,1,1.12-.75,3.41,3.41,0,0,1,1.38-.28,2.81,2.81,0,0,1,1,.19,3.22,3.22,0,0,1,.89.52,3.58,3.58,0,0,1,.71.79A3.66,3.66,0,0,1,146.6,99.74Zm-3.1-1.8a2.8,2.8,0,0,0-1,.19,2.57,2.57,0,0,0-.85.53,2.84,2.84,0,0,0-.58.79,2.77,2.77,0,0,0-.28,1,3.26,3.26,0,0,0,0,.42,3,3,0,0,0,0,.4l2.41-1,2.43-1a2.57,2.57,0,0,0-.88-1A2.21,2.21,0,0,0,143.5,97.94Z"/><path class="b" d="M152.77,98a3.28,3.28,0,0,0-1.07.21,2.68,2.68,0,0,0-.85.51,2.45,2.45,0,0,0-.58.77,2.21,2.21,0,0,0-.22,1v3.69H149.3V97.36H150v1.19c0,0.17,0,.35,0,0.56a3,3,0,0,1,1.2-1.38,3.2,3.2,0,0,1,1.63-.51Z"/></svg>